<svg
   width="24"
   height="24"
   viewBox="0 0 24 24">
  <g>
    <path
       d="m 11.253664,0.87723457 0.0171,2.31689783 h 1.417934 v -2.31689783 z m -0.899308,0.18754313 c 0,0 -3.3121812,0.4020384 -5.6123792,3.0813981 -2.2253241,2.592137 -2.7876737,5.5268053 -2.7876737,5.5268053 h -0.9293422 v 2.3228319 h 0.637373 v 0.847269 h -0.77811894 v 2.380805 h 0.92340504 c 0,0 0.024411,1.125083 0.1955774,1.760898 0.1711813,0.635815 0.4889435,1.442731 0.4889435,1.442731 v 3.179184 h 2.812472 c 0,0 -2.8366795,-3.619292 -2.4698621,-9.439409 0.1490412,-2.3647262 1.0271101,-5.2276685 2.4817364,-6.8640654 2.125523,-2.391158 5.0378688,-3.0524048 5.0378688,-3.0524048 z m 3.291284,0 v 1.1860431 c 0,0 2.912346,0.6612468 5.037868,3.0524048 1.454639,1.6363969 2.332699,4.4993392 2.481741,6.8640654 0.36682,5.820117 -2.469866,9.439409 -2.469866,9.439409 h 2.812471 v -3.179184 c 0,0 0.317763,-0.806916 0.488944,-1.442731 0.171168,-0.635815 0.195579,-1.760898 0.195579,-1.760898 h 0.923408 v -2.380805 h -0.778118 v -0.847269 h 0.63737 v -2.3228319 h -0.929343 c 0,0 -0.562359,-2.9346683 -2.787675,-5.5268053 -2.300198,-2.6793597 -5.612379,-3.0813981 -5.612379,-3.0813981 z m -3.309099,2.4234158 c 0,0 -6.2598733,2.0059342 -6.2598733,8.4384685 0,6.432534 1.5908126,7.954066 1.5908126,7.954066 h 4.7036357 v -0.691504 h 1.522364 0.206751 1.522363 v 0.691504 h 4.703285 c 0,0 1.590812,-1.521532 1.590812,-7.954066 0,-6.4325343 -6.259521,-8.4384685 -6.259521,-8.4384685 v 0.5532083 h -6.56e-4 -3.319224 -6.56e-4 z m -2.1901185,6.8686135 a 2.4821231,2.4821231 0 0 1 1.1972143,0.393246 v 4.13018 a 2.4821231,2.4821231 0 0 1 -1.1972143,0.393246 v -1.746571 a 0.73363244,0.73363244 0 0 0 0.6206087,-0.72399 0.73363244,0.73363244 0 0 0 -0.6206087,-0.703027 z m 8.0302055,0.0091 a 2.4821231,2.4821231 0 0 1 1.197208,0.413859 v 4.070801 a 2.4821231,2.4821231 0 0 1 -1.197208,0.413859 v -1.750768 a 0.73363244,0.73363244 0 0 0 0.562629,-0.710717 0.73363244,0.73363244 0 0 0 -0.562629,-0.687665 z m -0.464499,0.0077 v 1.774517 a 0.73363244,0.73363244 0 0 0 -0.440399,0.654833 0.73363244,0.73363244 0 0 0 0.440399,0.655184 v 1.798617 a 2.4821231,2.4821231 0 0 1 -1.098726,-0.380675 v -4.1218 a 2.4821231,2.4821231 0 0 1 1.098726,-0.380676 z m -8.0301988,0.0094 v 1.780801 a 0.73363244,0.73363244 0 0 0 -0.3820744,0.63912 0.73363244,0.73363244 0 0 0 0.3820744,0.639472 v 1.804901 a 2.4821231,2.4821231 0 0 1 -1.0987258,-0.400937 v -4.06242 a 2.4821231,2.4821231 0 0 1 1.0987258,-0.400937 z m 2.12655,0.77707 a 2.4821231,2.4821231 0 0 1 0.6702078,1.655077 2.4821231,2.4821231 0 0 1 -0.6702078,1.655077 z m 4.3404238,0.008 v 3.294082 a 2.4821231,2.4821231 0 0 1 -0.662165,-1.647041 2.4821231,2.4821231 0 0 1 0.662165,-1.647041 z m 3.689782,0.04994 a 2.4821231,2.4821231 0 0 1 0.612222,1.597097 2.4821231,2.4821231 0 0 1 -0.612222,1.597097 z m -11.7199804,0.008 v 3.178136 a 2.4821231,2.4821231 0 0 1 -0.6041931,-1.589068 2.4821231,2.4821231 0 0 1 0.6041931,-1.589068 z m 0.2105959,9.57352 c 0,0 2.8857381,2.323175 5.5757015,2.323175 0.0027,0 0.0054,-4.37e-4 0.0084,-4.37e-4 0.0027,0 0.0054,4.37e-4 0.0084,4.37e-4 2.689963,0 5.57535,-2.323175 5.57535,-2.323175 h -5.518777 z"/>
  </g>
</svg>
