
<svg
   width="24"
   height="24"
   viewBox="0 0 24 24"><g>
   <path
       d="m 12.330472,0.79545664 c -2.082941,-0.0343158 -4.6569633,0.46855346 -7.2255272,2.36526566 -3.892962,2.8746724 -4.23581026,8.3324267 -4.23581026,8.3324267 h 22.29015446 v -2.0830201 h -4.722116 v -0.6945778 h 1.666842 v -0.7289332 h -3.263903 v -0.8681276 h 2.256927 v -0.7289336 h -0.555729 v -0.9028399 h -1.701198 v -0.7983574 h 0.798704 v -0.8334157 h -1.597061 v -0.7289334 l 0.798357,-0.069424 0.03472,-1.2846626 c 0,0 -1.866302,-0.93230057 -4.544352,-0.97646694 z m -4.2799965,2.23447736 a 3.2529403,3.2897661 0 0 1 3.2530335,3.2895065 3.2529403,3.2897661 0 0 1 -3.2530335,3.2898424 3.2529403,3.2897661 0 0 1 -3.253024,-3.2898424 3.2529403,3.2897661 0 0 1 3.253024,-3.2895065 z m -7.18134096,9.29663 c 0,0 -0.59693859,3.905176 3.68042736,7.846468 4.8607363,4.478814 9.8951321,2.673461 9.8951321,2.673461 v -0.555373 h -0.764002 v -0.729289 h 2.395775 v -0.937196 h 0.798357 v -0.625154 h 2.395775 v -0.833069 h 0.798348 v -0.90284 h -1.666486 v -0.833069 h -2.395418 v -0.72928 h 1.527647 v -0.798714 h 3.228834 v -0.763635 h -1.527637 v -0.833426 h 3.819266 v -1.978884 z" /></g></svg>
