<svg
   width="24"
   height="24"
   viewBox="0 0 24 24">
   <g>
   <path  d="m 11.160368,0.632125 c -8.7385397,-0.0121 -7.2568097,9.54686 -7.2568097,9.54686 l -3.24405802,8.25144 c 0,0 -0.199629,0.21799 0,0.61724 0.198803,0.39761 3.03501002,4.2872 11.29022772,4.31923 v 0.001 c 0.0171,0 0.0332,-6.9e-4 0.0503,-6.9e-4 0.0172,5e-5 0.0334,6.9e-4 0.0506,6.9e-4 v -0.001 c 8.255191,-0.0321 11.091061,-3.92161 11.289871,-4.31923 0.19963,-0.39925 0,-0.61724 0,-0.61724 l -3.24406,-8.25144 c 0,0 1.5742,-10.15801 -8.096421,-9.51728 -0.28959,-0.0192 -0.56985,-0.0292 -0.83961,-0.0296 z m -2.1927597,6.83202 c 0,0 1.0978097,0.13677 1.6717397,0.38631 0.57375,0.24946 1.34697,0.6455 1.34745,0.64574 4.8e-4,-2.4e-4 0.7737,-0.39627 1.34744,-0.64574 0.57393,-0.24953 1.67174,-0.38631 1.67174,-0.38631 0,0 0.85383,-0.011 2.09048,0.54917 1.271111,0.57569 2.054851,2.56409 2.054851,2.56409 l 3.06943,7.87691 c 0,0 0.18019,0.40638 -0.27049,0.55309 -0.4458,0.1451 -0.61046,-0.20385 -0.61046,-0.20385 0,0 -2.81637,-7.41318 -3.45111,-8.55614 -0.665181,-1.19776 -1.419151,-1.37693 -2.342431,-1.72627 -0.92328,-0.34934 -2.7141,0.61218 -2.83887,0.83677 -0.12477,0.22458 -0.72058,0.1511 -0.72058,0.1511 0,0 -0.59582,0.0735 -0.72059,-0.1511 -0.12476,-0.22459 -1.9155797,-1.18611 -2.8388597,-0.83677 -0.92325,0.34934 -1.67726,0.52851 -2.34244,1.72627 -0.63473,1.14296 -3.451105,8.55614 -3.451105,8.55614 0,0 -0.164659,0.34896 -0.610466,0.20385 -0.450672,-0.14671 -0.270486,-0.55309 -0.270486,-0.55309 l 3.069437,-7.87691 c 0,0 0.78373,-1.9884 2.05484,-2.56409 1.23669,-0.56011 2.09048,-0.54917 2.09048,-0.54917 z m 0.39308,2.17636 c 0.7203297,-0.007 0.9778897,0.15146 0.9778897,0.15146 0,0 0.82212,0.3964 0.92193,1.21986 0.0998,0.82347 -0.009,1.60582 -0.009,1.60582 0,0 -0.1161,0.24978 -0.34069,0.34959 l -1.6100897,0.0164 -2.40551,0.004 c 0,0 -0.61116,-0.34273 -0.66107,-0.74198 -0.0499,-0.39925 0.11636,-2.13956 1.83817,-2.46396 0.53806,-0.10136 0.96086,-0.13847 1.28828,-0.14147 z m 5.2522097,0 c 0.32743,0.003 0.75023,0.0401 1.28829,0.14148 1.721781,0.3244 1.888101,2.0647 1.838171,2.46397 -0.0499,0.39923 -0.661071,0.74197 -0.661071,0.74197 l -2.40551,-0.004 -1.61009,-0.0164 c -0.22459,-0.0998 -0.3407,-0.3496 -0.3407,-0.3496 0,0 -0.10872,-0.78235 -0.009,-1.60581 0.0998,-0.82347 0.92193,-1.21987 0.92193,-1.21987 0,0 0.25756,-0.15806 0.97789,-0.15145 z m -2.5591,4.01632 c 0.20656,-0.003 0.63971,0.0423 0.88095,0.43192 0.32439,0.52402 0.32465,0.57376 0.32465,0.57376 v 1.52242 l -1.27902,-0.0242 -1.27866,0.0242 v -1.52242 c 0,0 -9e-5,-0.0497 0.3243,-0.57376 0.22302,-0.36027 0.61096,-0.42587 0.83177,-0.43157 0.052,-0.001 0.0935,6.6e-4 0.12259,0.003 0.019,-0.001 0.0439,-0.003 0.0734,-0.003 z m -0.40056,3.22909 3.5e-4,0.002 v 3.37699 h -1.34103 v -3.27328 l 0.10442,-0.0955 z m 0.6885,3.6e-4 1.22949,0.01 0.0763,0.0699 v 3.29894 h -1.30575 z m -2.6820497,0.70169 v 2.67671 h -1.0235 v -1.74158 z m 4.6934197,0.0225 0.97076,0.88701 v 1.76724 h -0.97076 z m -7.1641497,1.91121 c 0.10311,-0.003 0.16286,0.002 0.2238,0.008 0.12231,0.13768 0.26114,0.30314 0.32359,0.41018 0.0605,0.10374 0.0873,0.27505 0.0987,0.42301 -0.0534,0.0848 -0.13206,0.20343 -0.23806,0.32573 -0.1622,0.18717 -0.69314,0.16464 -0.69314,0.16464 0,0 -0.43478,-0.11561 -0.43478,-0.80183 0,-0.42889 0.41135,-0.52104 0.71988,-0.52993 z m 9.6099397,0 c 0.30862,0.009 0.720221,0.10105 0.720221,0.52993 0,0.68622 -0.435131,0.80184 -0.435131,0.80184 0,0 -0.53094,0.0225 -0.69314,-0.16464 -0.12836,-0.14811 -0.22087,-0.29657 -0.26229,-0.36492 0.013,-0.13818 0.0399,-0.28913 0.0952,-0.38382 0.0619,-0.10617 0.19916,-0.26999 0.32074,-0.40697 0.0566,-0.007 0.12831,-0.015 0.25445,-0.0114 z" /></g></svg>
