<svg
   width="24"
   height="24"
   viewBox="0 0 24 24">
   <g><path d="m 9.6054701,6.0595902 c 0,0 0.4488899,0.37401 0.7930299,0.83785 0.34414,0.46385 0.8079,1.61633 0.89764,2.09514 0.0897,0.47881 3.3e-4,0.74771 -0.26899,0.71781 -0.26941,-0.0299 -0.29938,-0.19428 -0.29938,-0.19428 0,0 -0.0597,-0.64347 -0.44882,-1.54121 -0.3890199,-0.89776 -1.0625202,-1.64584 -1.0625202,-1.64584 l -0.88269,0.56838 c 0,0 0.61329,0.80836 0.94247,1.28717 0.3291803,0.4788 0.5686403,1.6308 0.3442003,1.7056 -0.22447,0.0749 -0.3143003,-0.0896 -0.3143003,-0.0896 0,0 -0.38884,-0.77843 -0.56838,-1.31707 -0.17955,-0.53866 -0.79303,-1.24184 -0.79303,-1.24184 0,0 -0.43377,0.28467 -0.91258,0.88319 -0.4788,0.59849 -0.70336,1.48095 -0.70336,1.48095 0,0 0.17955,-0.0597 0.40398,-0.0747 0.22444,-0.0149 1.22666,0.19439 1.01719,0.5235298 -0.20948,0.32916 -0.3437,0.25455 -0.3437,0.25455 0,0 -1.24225,-0.29939 -1.72106,-0.29939 -0.478796,0 -1.166814,0.20971 -1.825155,0.20971 -0.658342,0 -0.478703,-0.20955 -1.316564,-0.3292598 -0.837885,-0.11972 -1.88542399,0.0597 -1.88542399,0.0597 0,0 0.65840299,0.2692698 1.16712099,0.4488198 0.508729,0.17957 0.688344,0.38892 1.556164,0.89764 0.867833,0.50867 2.842838,0.41893 2.842838,0.41893 0,0 0.0896,0.56865 0.13449,1.13723 0.0449,0.56857 0.32919,1.10736 0.41893,1.49638 0.0897,0.38903 0.76305,1.06232 1.24184,1.63089 0.47877,0.56858 0.8981,1.04733 1.34696,1.66078 0.3057803,0.41787 1.7275902,0.67349 2.6336302,0.67347 0.90604,-3e-5 1.95166,-0.2368 2.63312,-0.67347 0.68146,-0.43668 0.8682,-1.0922 1.34694,-1.66078 0.47881,-0.56857 1.15209,-1.24186 1.24186,-1.63089 0.0897,-0.38902 0.37404,-0.92781 0.41893,-1.49638 0.0449,-0.56858 0.13448,-1.13723 0.13448,-1.13723 0,0 1.97502,0.0898 2.84285,-0.41893 0.86783,-0.50873 1.04744,-0.71807 1.55616,-0.89764 0.50873,-0.17955 1.16714,-0.4488198 1.16714,-0.4488198 0,0 -1.04755,-0.17948 -1.88545,-0.0597 -0.83785,0.1197098 -0.6582,0.3292598 -1.31655,0.3292598 -0.65835,0 -1.34636,-0.20971 -1.82516,-0.20971 -0.4788,0 -1.72105,0.29939 -1.72105,0.29939 0,0 -0.13424,0.0746 -0.34371,-0.25455 -0.20948,-0.3291398 0.79275,-0.5384898 1.01719,-0.5235298 0.22443,0.0149 0.40399,0.0747 0.40399,0.0747 0,0 -0.22457,-0.88246 -0.70337,-1.48095 -0.4788,-0.59851 -0.91258,-0.88319 -0.91258,-0.88319 0,0 -0.61347,0.70319 -0.79302,1.24184 -0.17955,0.53865 -0.56838,1.31707 -0.56838,1.31707 0,0 -0.0898,0.16453 -0.31432,0.0896 -0.22443,-0.0748 0.015,-1.2268 0.34422,-1.7056 0.32918,-0.47881 0.94246,-1.28717 0.94246,-1.28717 l -0.88268,-0.56838 c 0,0 -0.67351,0.74808 -1.06253,1.64584 -0.38903,0.89774 -0.44881,1.54121 -0.44881,1.54121 0,0 -0.03,0.16435 -0.29938,0.19428 -0.26933,0.0299 -0.35876,-0.23901 -0.26899,-0.71781 0.0897,-0.47881 0.5535,-1.6313 0.89764,-2.09514 0.34413,-0.46384 0.79303,-0.83785 0.79303,-0.83785 0,0 -0.44165,-0.37368 -2.39403,-0.37371 -1.95238,-3e-5 -2.3945299,0.37371 -2.3945299,0.3737 z m -9.6054703,4.1304998 c 0,0 1.391647,1.21184 1.900365,1.75044 0.508721,0.53864 0.703266,0.67311 1.586057,1.36139 0.882775,0.68827 2.603228,0.94297 2.603228,0.94297 l -0.13449,-0.88269 c 0,0 -0.2243,0.0599 -0.5086,0 -0.284276,-0.0597 -0.463747,-0.12005 -0.463747,-0.12005 v -0.52353 h 0.807967 v -0.41893 c 0,0 -1.40655,7e-5 -1.945202,-0.0897 -0.538647,-0.0897 -0.882709,-0.44892 -1.301619,-0.76313 -0.418951,-0.31421 -2.543959,-1.2568 -2.543959,-1.2568 z m 24.0000002,0 c 0,0 -2.12502,0.94258 -2.54397,1.25679 -0.4189,0.31422 -0.76296,0.67336 -1.30161,0.76314 -0.53865,0.0897 -1.94521,0.0896 -1.94521,0.0896 v 0.41893 h 0.80797 v 0.52354 c 0,0 -0.17947,0.0602 -0.46376,0.12004 -0.28428,0.0598 -0.50859,0 -0.50859,0 l -0.13449,0.8827 c 0,0 1.72045,-0.2547 2.60324,-0.94297 0.88279,-0.68827 1.07732,-0.82274 1.58604,-1.3614 0.50872,-0.53859 1.90038,-1.75043 1.90038,-1.75043 z m -14.9155702,0.23512 c 1.3908702,0 1.9856102,0.99436 2.2147002,1.57111 l 0.18331,-0.74222 c 0.0324,-0.12867 0.16315,-0.20655 0.2919,-0.17483 0.1276,0.0326 0.14592,0.16178 0.11507,0.2899 l -0.46924,2.14794 0.54495,0.23911 v 0.0304 l 0.0349,-0.0154 0.0349,0.0154 v -0.0304 l 0.54496,-0.23911 -0.46924,-2.14794 c -0.0309,-0.12812 -0.0126,-0.25733 0.11507,-0.2899 0.12874,-0.0317 0.260107,0.0461 0.29191,0.17483 l 0.1833,0.74222 c 0.2291,-0.57675 0.82382,-1.57111 2.2147,-1.57111 1.95731,0 2.06925,1.99452 2.06925,1.99452 h -0.94147 v 0.402 c 0,0 0.45517,-0.2007 0.46575,-0.0314 0.0106,0.16927 -0.201,0.80397 -1.46003,0.76165 -1.25903,-0.0422 -2.04227,-0.56111 -1.65081,-0.71981 0.39144,-0.1587 0.51856,0 0.51856,0 v -0.43336 h -1.11682 l 0.27497,1.11431 c 0.0175,0.0709 0.0816,0.0209 0.18282,0.0812 0.21039,0.12538 0.48003,0.33907 0.73225,0.68892 0.49575,0.68767 0.73973,1.50834 0.73973,1.50834 0.007,0.0226 0.01,0.0462 0.01,0.0698 v 0.79252 c -0.005,0.31681 -0.52172,0.31681 -0.52654,0 v -0.55193 h -1.98305 v -0.004 c 0,-0.0119 -0.0239,0.004 -0.0364,0.004 h -0.38704 c -0.0125,0 -0.0245,-0.001 -0.0363,-0.004 v 0.004 h -1.9830699 v 0.55193 c 0,0.31685 -0.5217003,0.31681 -0.5265203,0 v -0.79252 c 0,-0.0236 0.004,-0.047 0.01,-0.0698 0,0 0.2439703,-0.82067 0.7397202,-1.50834 0.25221,-0.34985 0.52187,-0.56354 0.73226,-0.68892 0.10118,-0.0602 0.11466,-0.0547 0.18281,-0.0812 l 0.27497,-1.11431 h -1.11681 v 0.43336 c 0,0 0.12712,-0.1587 0.51855,0 0.39147,0.1587 -0.39179,0.6775 -1.6508102,0.71981 -1.25903,0.0423 -1.47062,-0.59238 -1.46002,-0.76165 0.0106,-0.16927 0.46576,0.0314 0.46576,0.0314 v -0.402 h -0.94149 c 0,0 0.11194,-1.99452 2.06926,-1.99452 z m 0.0703,0.6152 c -1.06585,0 -1.39925,0.80797 -1.39925,0.80797 h 2.8463302 c 0,0 -0.3812,-0.80797 -1.4470802,-0.80797 z m 5.6906702,0 c -1.06588,0 -1.44708,0.80797 -1.44708,0.80797 h 2.84634 c 0,0 -0.33341,-0.80797 -1.39926,-0.80797 z m -3.6812,2.88718 v 4.9e-4 c -0.0335,0.0104 -0.0602,0.0126 -0.17534,0.0812 -0.15993,0.0953 -0.37767,0.26336 -0.58929,0.5569 -0.33356,0.46269 -0.7615189,1.05456 -0.5155799,1.05456 h 1.8944099 v 0.004 c 0.01,-7.3e-4 0.0184,-0.004 0.0279,-0.004 h 0.38755 c 0.01,0 0.0279,0.0142 0.0279,0.004 v -0.004 h 1.89439 c -0.0815,-0.23206 -0.182,-0.59187 -0.51556,-1.05456 -0.21162,-0.29355 -0.42935,-0.46156 -0.58929,-0.5569 -0.11513,-0.0687 -0.14189,-0.0707 -0.17534,-0.0812 v -4.9e-4 l -0.81495,0.44034 c -0.007,0.004 -0.0139,0.005 -0.0209,0.007 -0.007,-0.004 -0.0138,-0.005 -0.0209,-0.007 z" /></g></svg>
