<svg
   width="24"
   height="24"
   viewBox="0 0 24 24">
   <g><path
       d="m 11.999901,0.29640193 c -6.6264937,0 -11.99990086204,5.37221487 -11.99990086204,11.99990107 0,5.302069 3.43833676204,9.799945 8.20626436204,11.386869 0.5995181,0.11128 0.8196925,-0.260314 0.8196925,-0.577262 0,-0.286147 -0.011128,-1.231426 -0.016295,-2.234134 -3.3383839,0.7259 -4.0428227,-1.415832 -4.0428227,-1.415832 -0.5458655,-1.387019 -1.3323729,-1.755831 -1.3323729,-1.755831 -1.088949,-0.744778 0.082069,-0.729278 0.082069,-0.729278 1.204799,0.08445 1.8394893,1.236593 1.8394893,1.236593 1.07027,1.834124 2.8072233,1.303957 3.4919894,0.997541 0.1077026,-0.775578 0.418689,-1.305149 0.7618669,-1.604809 -2.6653419,-0.303038 -5.4673986,-1.332174 -5.4673986,-5.930202 0,-1.310117 0.4689635,-2.3805856 1.2365931,-3.221143 -0.124792,-0.3020443 -0.5355324,-1.5225415 0.1160486,-3.175439 0,0 1.0074766,-0.3225117 3.3006284,1.2300355 0.9574008,-0.2660771 1.9841525,-0.3998112 3.0041485,-0.4043816 1.019399,0.00457 2.046747,0.137907 3.005936,0.4039842 2.29037,-1.5525473 3.296654,-1.2300355 3.296654,-1.2300355 0.653171,1.6526987 0.242431,2.8733947 0.117837,3.175439 0.769418,0.8405574 1.235004,1.9110264 1.235004,3.2211434 0,4.608957 -2.807223,5.623587 -5.479322,5.920862 0.430612,0.372389 0.814129,1.102859 0.814129,2.222211 0,1.605604 -0.01391,2.897837 -0.01391,3.293078 0,0.319332 0.2162,0.693509 0.824263,0.575672 4.765146,-1.588514 8.199508,-6.085 8.199508,-11.385081 -1.99e-4,-6.6272888 -5.37301,-11.99970235 -12.000099,-11.99970235 z"/></g></svg>
