<svg
   width="24"
   height="24"
   viewBox="0 0 24 24">
  <g
     id="g5">
    <path
       style="color:#000000;-inkscape-stroke:none;paint-order:markers stroke fill"
       d="m 12,0 c -6.607105,-1.9270723e-7 -12.00000019270723,5.392895 -12,12 0,6.607105 5.3928951,12 12,12 6.607105,0 12,-5.392895 12,-12 0,-6.6071049 -5.392895,-12 -12,-12 z m 0,3.4277344 c 4.75417,0 8.572266,3.8180957 8.572266,8.5722656 0,4.75417 -3.818096,8.572266 -8.572266,8.572266 -4.7541699,0 -8.5722656,-3.818096 -8.5722656,-8.572266 -2e-7,-4.75417 3.8180956,-8.5722658 8.5722656,-8.5722656 z"
       id="path4" />
    <path
       style="fill:#ffffff;fill-opacity:0.569733;stroke:#000000;stroke-width:0;stroke-dasharray:none;stroke-opacity:1;paint-order:markers stroke fill"
       d="m 6.2492202,5.6287914 c 0,0 2.3148578,-2.201057 5.7507798,-2.201057 3.435922,0 5.773447,2.221585 5.773447,2.221585 l 2.293631,-2.5188089 c 0,0 -3.007617,-3.1305105 -8.067078,-3.1305105 -5.0594607,0 -8.035593,3.1019405 -8.035593,3.1019405 z"
       id="path5" />
  </g>
</svg>
