
<svg

   width="24"
   height="24"
   viewBox="0 0 24 24"><g><path
       id="path2"
       d="m 9.2900703,1.9799132 c -0.7133801,-7.477e-4 -1.4563852,0.1846391 -2.166902,0.193019 0,0 0.8875385,0.2959389 1.146545,0.7584548 0.2590083,0.4625159 0.5919962,2.2197215 0.5919962,2.2197215 0,0 -1.3317666,-1.7395052 -1.9237821,-1.8875088 -0.5920184,-0.1480035 -1.3131212,-0.3694253 -1.3131212,-0.3694253 l -2.1834479,1.4239369 c 0,0 2.9971486,-0.2025916 3.8111738,0.5929354 0.8140229,0.7955281 1.4798142,2.9222986 1.4798142,2.9222986 0,0 -1.9976733,-2.3859236 -3.5887199,-2.3304198 -1.5910465,0.055499 -2.6646288,0.1665759 -2.6646288,0.1665759 0,0 -2.05366039,3.8850133 -1.97965973,6.6601036 0.0740025,2.775071 0.55572253,5.032236 0.55572253,6.549288 0,1.517051 -0.37048168,3.551512 -0.37048168,3.551508 l 1.11038908,0.29594 c 0,0 0.1850041,-3.811016 0,-4.995049 -0.1850064,-1.18404 -0.99947525,-4.439563 -0.2224533,-6.289622 0.7770237,-1.8500437 2.2947884,-4.1076305 4.0708396,-4.0336275 1.7760518,0.074005 2.8484134,1.5541226 2.9224165,2.2941466 0.074001,0.7400229 -0.5919962,1.6278429 -0.5919962,1.6278429 0,0 -0.3693614,-3.1076072 -2.3304203,-2.8116004 -1.9610582,0.2960129 -3.1458092,2.4790134 -3.1458092,4.5510814 0,2.072051 0.5179938,4.218471 0.5919962,5.217502 0.074003,0.999035 -0.1843014,4.624566 -0.1843014,4.624566 l 6.1690626,0.07055 v 0.002 l 0.094147,-9.37e-4 0.2665922,0.0029 v -0.0059 l 6.1700015,-0.07055 c 0,0 -0.259244,-3.62555 -0.185241,-4.624567 0.074,-0.999031 0.591996,-3.14545 0.591996,-5.217502 0,-2.072065 -1.183818,-4.2550678 -3.144869,-4.5510806 -1.961059,-0.2960068 -2.33136,2.8116006 -2.33136,2.8116006 0,0 -0.6659977,-0.88782 -0.5919958,-1.6278431 0.074004,-0.7400222 1.1472998,-2.2201417 2.9233558,-2.2941466 1.316441,-0.054854 2.162691,1.0610405 2.998594,2.4527213 -0.01651,-0.2100504 0.100309,-0.6919803 0.08599,-0.8590043 -0.04693,-0.5475479 0.436562,-0.8103457 0.951272,-1.2147811 -0.219841,-0.5664925 -0.328665,-0.9809568 -0.503486,-1.3576135 -0.04071,0.011651 -0.08031,0.023916 -0.123847,0.03416 -0.72591,0.1708022 -1.400352,-0.2162825 -1.681103,-0.8804472 -0.394432,-0.024648 -0.699006,-0.061678 -1.228635,-0.080153 -1.591047,-0.055505 -3.5887195,2.3304198 -3.5887195,2.3304198 0,0 0.6657905,-2.1267698 1.4798135,-2.9222986 0.595865,-0.5823249 2.165105,-0.6540998 3.0687,-0.6377292 0.0025,-0.1077919 0.01043,-0.2171487 0.0223,-0.3275172 l -1.462222,-1.0516288 c 0,0 -0.722157,0.2214218 -1.314177,0.3694253 -0.592015,0.1480042 -1.9237818,1.8875088 -1.9237818,1.8875088 0,0 0.3328708,-1.7572056 0.5918778,-2.2197216 0.259007,-0.462516 1.146663,-0.7584548 1.146663,-0.7584548 0,0 -1.382724,-0.1903933 -2.0961044,-0.1911407 z m -2.67156,8.8973468 c 0.4392666,-6e-5 0.7954611,0.314506 0.7956672,0.702695 3.606e-4,0.388556 -0.3559853,0.703702 -0.7956672,0.703633 -0.4397276,1.21e-4 -0.7961667,-0.315037 -0.795785,-0.703633 1.803e-4,-0.38823 0.3564721,-0.70282 0.795785,-0.702695 z m 5.2301797,0.02547 c 0.439313,-1.2e-4 0.795579,0.314466 0.795785,0.702695 3.6e-4,0.388597 -0.356057,0.70376 -0.795785,0.703634 -0.439315,-3.61e-4 -0.795109,-0.315402 -0.794728,-0.703634 1.8e-4,-0.387865 0.355828,-0.702305 0.794728,-0.702695 z m -2.4597831,1.739481 c 0.7677731,0.074 1.8492401,1.054512 1.8492401,1.054512 0,-6e-6 -0.795715,0.991727 -1.8963138,1.026103 -1.1745574,0.03668 -1.9696813,-1.119194 -1.9696813,-1.119194 0,0 1.2952327,-0.887422 2.016755,-0.961421 z m 7.8307141,0.363669 c 0.03112,0.355146 0.08556,-0.02548 0.07114,0.348748 0.166158,-0.04819 0.373932,0.133155 0.660199,0.103896 0.02094,-0.282269 0.01996,-0.101107 0.03381,-0.396413 -0.223154,0.0062 -0.510235,0.02868 -0.765146,-0.05623 z m -5.501233,0.391969 c 0,0 1.360533,0.418912 1.988463,1.413136 0.627932,0.994225 0.707065,3.557732 0.759395,4.630437 0.02579,0.529024 0.290845,1.348439 0.181367,1.910048 -0.11251,0.577186 -0.495854,1.046646 -0.495854,1.046646 0,0 -0.273614,-1.399247 -0.298731,-2.697702 -0.02514,-1.299772 -0.21386,-2.789955 -0.438714,-3.443279 -0.441128,-1.281719 -0.884652,-1.341591 -1.329435,-1.629395 -0.444785,-0.287798 -0.65429,-0.680451 -0.366491,-1.229891 z m -4.9509105,0.124433 c 0.2878009,0.549441 0.079233,0.942093 -0.3655514,1.229891 -0.4447835,0.287804 -0.676729,0.35193 -1.1174333,1.265963 -0.2862201,0.593627 -0.5140972,2.292997 -0.5985805,3.659099 -0.085263,1.378706 -0.3518058,2.845314 -0.3518058,2.845314 0,0 -0.382402,-0.469459 -0.4949146,-1.046647 -0.109475,-0.561618 0.1554463,-1.380906 0.18125,-1.90993 0.052328,-1.072714 0.1306428,-3.63633 0.7585719,-4.630553 0.6279303,-0.994216 1.9884637,-1.413137 1.9884637,-1.413137 z m 10.2003425,2.952832 c -0.115742,0.692825 -0.194009,0.873861 -0.253444,1.254296 -0.185004,1.184036 0,4.995049 0,4.995049 l 1.110389,-0.295939 c 0,0 -0.370483,-2.034457 -0.370483,-3.551508 0,-0.699993 0.0691,-1.184587 0.186829,-2.177925 -0.327444,-0.04938 -0.598971,-0.103471 -0.673291,-0.223973 z m -7.2976472,-0.05695 c 0.3309152,-0.0056 0.7267292,0.01239 1.0867932,0.09309 0.679687,0.152373 1.199535,0.579419 1.216274,1.05639 0.03698,1.05453 -2.7577179,1.186809 -2.7577179,1.186809 0,0 -2.7179479,-0.133228 -2.7734487,-1.187749 -0.029926,-0.568557 0.511832,-0.921 1.1857535,-1.052515 0.5760406,-0.112415 1.2985648,-0.04308 1.2985648,-0.04308 0,0 0.3183191,-0.04578 0.7437811,-0.05294 z" /><path
       id="path4"
       d="m 19.586876,1.0148674 c -0.867193,0.016126 -1.807926,0.2293569 -2.744008,0.6595592 -2.995462,1.376647 -2.513979,4.7433606 -0.477063,4.2603267 2.036914,-0.4830345 0.596878,-1.6277965 2.561901,-2.5697131 1.965024,-0.9419165 3.06734,0.458901 2.396357,1.8838517 -0.670985,1.4249507 -2.516184,2.3668582 -3.330951,2.5359204 -0.814765,0.1690616 -1.718734,1.3134109 -1.646843,2.1587201 0.07189,0.8453106 -0.0942,1.8981786 0.192597,2.2369996 0.286799,0.338822 0.931721,0.481094 1.33,0.446799 0.398279,-0.0343 1.102329,-0.03624 1.246112,-0.519273 0.143782,-0.483033 -0.25919,-2.1495755 0.459721,-2.849975 0.718911,-0.700399 2.492263,-1.9321413 2.492263,-1.9321413 0,0 1.86914,-1.3525328 1.341939,-3.7677036 -0.362452,-1.6604292 -1.914203,-2.57884931 -3.822025,-2.5433707 z m -1.738589,12.8885936 c -0.114932,-1.81e-4 -0.190311,0.0043 -0.190311,0.0043 -1.289619,0.120346 -1.057706,0.427559 -1.177115,0.872839 -0.119409,0.44528 0.04888,0.618921 0.251873,0.955891 0.202996,0.336968 2.023449,0.50986 2.310032,0.06458 0.286582,-0.44528 0.06007,-0.933109 -0.05934,-1.37839 -0.08956,-0.33396 -0.790349,-0.518659 -1.135143,-0.519222 z" /></g></svg>
