<svg
   width="24mm"
   height="24mm"
   viewBox="0 0 24 24">
   <g>
   <path d="m 16.656103,3.3451975 c -0.36491,6e-5 -0.71487,0.145 -0.97296,0.40297 l -5.09878,5.09878 c -0.53731,0.53751 -0.53731,1.4087705 0,1.9462905 0.53747,0.537039 1.40843,0.537039 1.9459,0 l 2.61003,-2.6100305 v 9.1959405 c -3e-5,0.83717 0.67864,1.51583 1.51581,1.51581 0.83701,-2.01e-4 1.51543,-0.6788 1.51541,-1.51581 v -9.1963305 l 2.61042,2.6104205 c 0.53751,0.5373 1.40877,0.5373 1.94629,0 0.5373,-0.53752 0.5373,-1.4087805 0,-1.9462905 l -5.09918,-5.09878 c -0.25809,-0.25796 -0.60804,-0.4029 -0.97294,-0.40297 z m -9.3125799,1.7603 c -0.83717,-2e-5 -1.51583,0.67863 -1.51581,1.5158 v 9.1955595 l -2.609644,-2.610039 c -0.537515,-0.53731 -1.408775,-0.53731 -1.94629,0 -0.53730297,0.537509 -0.53730297,1.40877 0,1.94629 l 5.098794,5.09878 c 0.53754,0.537219 1.40874,0.537219 1.94629,0 l 5.0987799,-5.09878 c 0.5373,-0.53752 0.5373,-1.408781 0,-1.94629 -0.53752,-0.53731 -1.40878,-0.53731 -1.94629,0 l -2.6104199,2.61043 v -9.1959505 c 10e-6,-0.83701 -0.67841,-1.5156 -1.51541,-1.5158 z" /></g></svg>
