<svg
   width="27.160156"
   height="5.640625"
   viewBox="0 0 27.160156 5.640625">
  <g>
    <path
       d="m 6.9921876,1.679688 h -1.7734375 q -1.0039063,-0.03125 -0.296875,0.554687 1.265625,1.109375 1.2421875,2.15625 -0.023437,1.046875 -1.2421875,1.25 h -4.921875025000002 v -1.679687 h 3.109375025000001 q 1.1054687,0.03125 0.28125,-0.617188 -1.359375,-1.25 -1.15625,-2.296875 0.203125,-1.046875 1.28125,-1.046875 h 3.4765625 z m 3.2929684,1.570312 -0.5937498,2.390625 h -1.835937 l -1.2968754,-3.960937 h -1.171875 v -1.679688 h 2.5859374 l 0.773438,2.4375 0.671875,-2.4375 h 1.6874998 l 0.785156,2.4375 0.523437,-2.4375 h 1.816407 l -1.394532,5.640625 h -1.835937 z m 2.789063,2.390625 1.855468,-5.640625 h 2.800782 l 1.886718,5.640625 h -2.132812 l -0.355469,-1.015625 h -1.675781 l -0.355469,1.015625 z m 3.261718,-4.390625 -0.808593,2.234375 h 1.554687 z m 3.203125,4.390625 v -5.640625 h 3.671875 q 0.679688,0.0625 1.125,0.351563 0.445313,0.289062 0.632813,0.804687 0.171875,0.625 0.140625,0.9375 -0.03125,0.3125 -0.125,0.585938 -0.09375,0.273437 -0.515625,0.632812 -0.421875,0.359375 -1.125,0.464844 h -1.765625 v 1.863281 z m 2.039063,-4.234375 v 1.039063 h 1.421875 q 0.113281,0 0.246094,-0.08203 0.132812,-0.08594 0.140625,-0.425782 -0.01953,-0.324218 -0.160157,-0.425781 -0.136718,-0.105469 -0.230468,-0.105469 z m 3.746094,-1.40625 h 1.835937 v 5.640625 h -1.835937 z"/>
  </g>
</svg>
