<svg
   viewBox="0 0 24 24"
   width="24"
   height="24"
>
  <g>
    <path
       d="m 19.620221,0.88939893 -2.566719,0.72827287 3.441534,2.344683 z m -3.03299,0.89257817 -3.836754,1.0879686 3.996618,2.8242777 3.921128,-1.1190535 z m -4.569468,1.6386139 -3.8367541,1.0879685 3.9966181,2.8242782 3.921129,-1.1190538 z m -4.5161792,1.6030883 -3.836755,1.0879679 3.9966197,2.8242779 3.9211265,-1.1190528 z m -4.5295021,1.6297319 -0.6483405,0.1820683 1.0346803,3.6458055 3.6946521,-1.0524426 z m 3.4859392,4.2142128 -3.1662097,3.796788 h 4.076551 l 3.0818378,-3.796788 z m 4.7515361,0 -3.1662105,3.796788 h 4.0765515 l 3.081838,-3.796788 z m 4.693808,0 -3.166211,3.796788 h 4.076552 l 3.081837,-3.796788 z m -12.7891813,0.02221 v 3.197296 l 2.6688529,-3.197296 z m 17.5451583,0 -3.166211,3.783467 h 4.094315 v -3.78347 z m -17.2742765,5.373231 -0.1243388,6.84754 h 18.4155323 v -6.84754 z"/>
  </g>
</svg>
