<svg
   width="24"
   height="24"
   viewBox="0 0 24 24">
  <g>
    <path
       d="m 12.015862,1.0565197 c -0.726653,0 -1.626309,0.1327543 -2.4837452,0.6209596 -0.951806,0.5393571 -2.1121039,1.6950493 -2.2254142,4.1289534 -0.00874,0.088657 -0.03709,0.40884 -0.03709,0.8673804 0,1.205831 0.1960464,3.3684639 1.4602762,4.7935959 1.0014412,1.133815 2.0233312,1.824945 3.2701812,1.824206 1.24685,-7.43e-4 2.267482,-0.705779 3.26101,-1.824206 1.744977,-1.9670665 1.454913,-5.3391749 1.423186,-5.6609763 -0.11331,-2.4157747 -1.25544,-3.5715358 -2.198181,-4.1108929 -1.000418,-0.5744333 -2.050212,-0.6390201 -2.470223,-0.6390201 z m -3.4582569,11.8613083 c -0.018129,0.0136 -1.7086984,1.192063 -3.7618806,1.71329 -0.01813,0.0045 -0.031696,0.009 -0.045292,0.01352 -1.9670663,0.675328 -2.0260298,2.77387 -2.0532242,3.666755 0,0.04079 -6.5e-6,0.07702 -0.00453,0.11328 v 0.01361 c -6.137e-4,0.03204 -0.00123,0.08209 -0.00123,0.146183 0,0.407393 0.024863,1.382262 0.2324254,1.907041 0.045324,0.117843 0.1268596,0.217578 0.2356376,0.285565 0.135972,0.09065 3.394795,2.166408 8.8472847,2.166408 5.452489,0 8.711311,-2.080293 8.847283,-2.166408 0.104247,-0.06799 0.190409,-0.167722 0.235733,-0.285565 0.22662,-0.60281 0.222015,-1.813 0.217483,-2.048686 0,-0.06788 -0.0044,-0.07608 -0.0044,-0.126895 -0.0272,-0.897417 -0.08616,-2.99596 -2.053225,-3.666756 -0.0136,-0.0045 -0.0317,-0.009 -0.04529,-0.01353 -2.044116,-0.521226 -3.743845,-1.699692 -3.761975,-1.713289 -2.968583,2.310439 -4.915214,1.303337 -6.8847409,-0.0045 z"/>
  </g>
</svg>
