<svg
   width="24"
   height="24"
   viewBox="0 0 24 24"
>

  <g>
    <path
       d="m 12.368187,5.5411532 c -0.670224,-0.017175 -1.38712,0.094292 -2.124496,0.4078882 -3.3708596,1.4335839 -4.1458905,4.2621276 -4.1458905,4.2621276 0,0 -5.93909816,2.291684 -5.43708274,4.666606 0.50369154,2.382849 6.52207484,2.249452 10.90031824,1.125832 4.378243,-1.123621 6.42205,-2.202517 6.422051,-2.202517 0,0 -2.738334,1.679316 -3.998606,2.199863 -1.260271,0.520548 -5.0698102,1.444063 -5.0698102,1.444063 0,0 1.9643452,1.293563 4.2349262,0.960807 2.24724,-0.329337 3.844415,-1.878754 4.37823,-2.692807 0.786243,-1.198992 0.929891,-2.169742 0.929891,-2.169742 0,0 6.20087,-2.553586 4.668037,-5.6079229 -1.005709,-2.0039856 -6.539165,-0.671316 -6.539165,-0.671316 0,0 -1.824742,-1.6615436 -4.218403,-1.7228819 z m 9.35067,2.9823749 c 1.37549,1.1103848 -3.156099,2.8827089 -3.156099,2.8827089 0,0 0.0112,-0.807612 -0.298768,-1.6212679 -0.309962,-0.8136551 -0.601921,-1.3349372 -0.601921,-1.3349372 0,0 2.997311,-0.7817802 4.056788,0.073496 z m -15.7725572,3.3320859 c 0,0 -0.059358,1.068107 0.075469,1.662979 0.1348272,0.594874 0.6044405,1.395944 0.6044405,1.395944 0,0 -4.5034269,0.768119 -4.0823195,-0.599473 0.4211075,-1.367592 3.4024096,-2.45945 3.40241,-2.45945 z"/>
  </g>
</svg>
