<svg

   width="24"
   height="24"
   viewBox="0 0 24 24"
>
  <g>
    <path d="m 7.6740502,1.2320704 c -0.6069724,-0.00715 -1.0392034,0.1454168 -1.0392034,0.1454168 0,0 -2.5761848,1.8078418 -1.4462781,5.1071708 1.1299066,3.2993291 4.1580501,2.4857916 4.1580501,2.4857916 0,0 2.8925592,-1.1750948 1.6270642,-4.926386 -0.790936,-2.3445579 -2.2880131,-2.8000765 -3.2996328,-2.8119932 z m 8.6518998,0.045196 c -1.011622,0.011916 -2.508697,0.467436 -3.299633,2.8119933 -1.265495,3.7512911 1.627064,4.926386 1.627064,4.926386 0,0 3.028142,0.8135375 4.15805,-2.4857917 1.129907,-3.2993283 -1.446277,-5.10717 -1.446277,-5.10717 0,0 -0.432232,-0.1525676 -1.039204,-0.1454176 z m -13.0510223,6.6681422 c -0.606972,-0.00721 -1.0391257,0.1454166 -1.0391257,0.1454166 0,0 -2.57618524,1.8078423 -1.44627856,5.1071708 1.12990726,3.299328 4.15805016,2.48579 4.15805016,2.48579 0,0 2.8925597,-1.175094 1.6270636,-4.926385 -0.7909355,-2.3445558 -2.2880895,-2.8000754 -3.2997095,-2.8119924 z m 17.4501443,0.045195 c -1.01162,0.01192 -2.508774,0.4674354 -3.299709,2.8119924 -1.265497,3.751291 1.627064,4.926386 1.627064,4.926386 0,0 3.028142,0.813538 4.15805,-2.485792 1.129906,-3.2993281 -1.446279,-5.1071699 -1.446279,-5.1071699 0,0 -0.432154,-0.1525669 -1.039126,-0.1454165 z m -8.750571,1.2815128 c -1.335261,0.00755 -2.9196544,0.06297 -3.7320161,1.8682126 -0.8135329,1.807849 -0.4067636,2.666573 -1.3106899,3.977265 -0.9039251,1.310693 -4.5648957,3.615769 -3.118615,6.237153 1.6937814,2.220136 5.6011123,1.314651 7.997328,0.691099 2.572657,0.293635 6.157773,1.749776 7.99524,-0.691563 1.446282,-2.621384 -2.214612,-4.926383 -3.118539,-6.237076 -0.903924,-1.310692 -0.497156,-2.169413 -1.310689,-3.977266 -0.665131,-1.4780671 -2.066761,-1.8754188 -3.402019,-1.8678246 z" />
  </g>
</svg>
