<svg

   width="24"
   height="24"
   viewBox="0 0 24 24">
   <g><path
       d="m 10.907018,0.64410365 c -0.559207,0.006124 -1.3875353,0.15532627 -1.828171,0.90603825 -0.7050165,1.2011331 0.3655624,2.4806055 0.3655624,2.4806055 l 2.0367086,-3.34228943 c 0,0 -0.238575,-0.0480249 -0.5741,-0.0443543 z m 1.435784,0.51436285 -2.088931,3.4467369 0.835572,0.5222319 -7.2590344,-0.9400185 -1.0966883,1.6189214 4.4879824,3.0257311 -0.5361844,0.7200372 -0.5089983,0.8416515 -4.5123049,-3.1423375 -1.13317368,1.5935255 3.41919338,6.472107 2.8436653,4.310924 1.9147345,-0.04113 c 0,0 -1.0949414,1.455738 0.2503843,2.49241 1.4474121,1.11533 2.4981321,-0.756522 2.4981321,-0.756522 l 0.323714,1.757347 c 0,0 1.369899,0.323471 2.409066,0.27006 1.039171,-0.05342 2.720976,-0.317274 2.720973,-0.317274 l 0.534754,0.306543 c 0,0 2.274994,-0.230536 4.079496,-2.690572 0.03979,-0.03522 0.078,-0.07324 0.113389,-0.11554 2.402272,-2.872272 1.74948,-6.084011 1.74948,-6.084011 l -0.443898,-0.365562 c 0,0 -0.313338,-1.540591 -0.626679,-2.532829 -0.313342,-0.992245 -1.175025,-2.4283821 -1.175025,-2.4283821 l -1.24513,0.107666 c 0,0 0.399158,-0.987378 -0.685341,-1.9308302 -1.506168,-1.3102708 -2.2735,0.073686 -2.2735,0.073686 l -0.835572,-3.9167443 z m 1.749478,9.9224205 a 3.3684137,3.4467489 0 0 1 3.368402,3.446736 3.3684137,3.4467489 0 0 1 -3.368402,3.446736 3.3684137,3.4467489 0 0 1 -3.368401,-3.446736 3.3684137,3.4467489 0 0 1 3.368401,-3.446736 z m -0.04471,1.099193 a 2.3226322,2.3286963 0 0 0 -2.322504,2.328586 2.3226322,2.3286963 0 0 0 2.322504,2.328944 2.3226322,2.3286963 0 0 0 2.322862,-2.328944 2.3226322,2.3286963 0 0 0 -2.322862,-2.328586 z m 4.873934,2.786791 a 0.51698596,0.49852218 0 0 1 0.517224,0.498266 0.51698596,0.49852218 0 0 1 -0.517224,0.498626 0.51698596,0.49852218 0 0 1 -0.516867,-0.498626 0.51698596,0.49852218 0 0 1 0.516867,-0.498266 z m 2.032771,0.383091 a 0.51698596,0.49852218 0 0 1 0.516869,0.498266 0.51698596,0.49852218 0 0 1 -0.516869,0.498625 0.51698596,0.49852218 0 0 1 -0.516868,-0.498625 0.51698596,0.49852218 0 0 1 0.516868,-0.498266 z m -2.915916,1.594597 a 0.51698596,0.49852218 0 0 1 0.517222,0.498626 0.51698596,0.49852218 0 0 1 -0.517222,0.498624 0.51698596,0.49852218 0 0 1 -0.516869,-0.498624 0.51698596,0.49852218 0 0 1 0.516869,-0.498626 z m 1.617489,1.021574 a 0.51698596,0.49852218 0 0 1 0.516867,0.498623 0.51698596,0.49852218 0 0 1 -0.516867,0.498267 0.51698596,0.49852218 0 0 1 -0.516868,-0.498267 0.51698596,0.49852218 0 0 1 0.516868,-0.498623 z m -3.062572,0.444613 a 0.51698596,0.49852218 0 0 1 0.517224,0.498624 0.51698596,0.49852218 0 0 1 -0.517224,0.498267 0.51698596,0.49852218 0 0 1 -0.516869,-0.498267 0.51698596,0.49852218 0 0 1 0.516869,-0.498624 z m 1.177169,1.686524 a 0.51698596,0.49852218 0 0 1 0.517225,0.498625 0.51698596,0.49852218 0 0 1 -0.517225,0.498626 0.51698596,0.49852218 0 0 1 -0.516867,-0.498626 0.51698596,0.49852218 0 0 1 0.516867,-0.498625 z" /></g></svg>
