<?xml version="1.0" encoding="UTF-8" standalone="no"?>
<!-- Created with Inkscape (http://www.inkscape.org/) -->

<svg
   width="24"
   height="24"
   viewBox="0 0 24 24"><g><path d="m 11.999999,3.5879365 -5.2487314,0.031063 c 0,-9e-7 -0.2176915,-0.085177 -0.774165,0.2786247 -0.5573579,0.3643879 -0.5572498,0.6191661 -0.5572498,0.6191661 l -1.9507887,4.0565769 -0.3407491,-0.062021 c 0,0 0.030963,-0.7741256 0,-0.9599151 -0.030968,-0.185789 -0.2786252,-0.1238327 -0.2786252,-0.1238327 0,0 -1.9818444,-0.06198 -2.01280876,0.7431028 -0.0309677,0.805085 2.22951736,0.8670403 2.22951736,0.8670403 0,0 -1.1070996,0.8414001 -1.3548152,1.1510495 -0.2477193,0.309646 -0.2552975,7.209454 0.085317,7.735854 0.054067,0.08356 0.1143297,0.147872 0.1762243,0.204388 v 2.147203 c 0,0 -0.046667,0.04637 0.06171,0.108302 0.1083781,0.06193 4.1252233,0 4.1252233,0 0,0 0.1548338,0.0155 0.2012805,-0.09287 0.044618,-0.10411 0.073371,-1.720308 0.075687,-1.852633 l 5.5629737,0.07392 5.571049,-0.07404 c 0.0024,0.132152 0.03106,1.748626 0.07569,1.852737 0.04645,0.10838 0.201281,0.09287 0.201281,0.09287 0,0 4.016846,0.06193 4.125223,0 0.108381,-0.06193 0.06181,-0.108302 0.06181,-0.108302 v -2.154037 c 0.059,-0.05508 0.116336,-0.117637 0.168044,-0.197554 0.340616,-0.5264 0.333036,-7.426208 0.08532,-7.735854 -0.247716,-0.3096494 -1.354814,-1.1510495 -1.354814,-1.1510495 0,0 2.260481,-0.061956 2.229517,-0.8670403 -0.03096,-0.8050836 -2.01281,-0.7431028 -2.01281,-0.7431028 0,0 -0.247659,-0.061956 -0.278625,0.1238327 -0.03096,0.1857895 0,0.9599152 0,0.9599152 l -0.340748,0.062021 -1.95079,-4.0565768 c 0,0 8.9e-5,-0.2547783 -0.557249,-0.6191662 -0.556472,-0.3638014 -0.774166,-0.2786256 -0.774166,-0.2786247 z m -5.6580228,1.0454391 c 0.060415,-0.00353 0.099604,0.00735 0.099604,0.00735 h 5.5584188 5.558417 c 0,0 0.03919,-0.01089 0.0996,-0.00735 0.100693,0.0059 0.260257,0.051914 0.395728,0.2551214 0.216755,0.3251279 1.501841,3.3751828 1.501841,3.3751828 h -2.260372 c 0,0 0.108346,-1.9663199 -1.362477,-1.9663199 -1.470829,0 -1.424393,1.9508918 -1.424393,1.9508918 l -2.508349,0.015428 -2.5083495,-0.015428 c 0,0 0.046436,-1.9508918 -1.4243933,-1.9508918 -1.4708268,0 -1.362478,1.9663199 -1.3624775,1.9663199 h -2.2603715 c 0,0 1.2850864,-3.0500549 1.5018407,-3.3751828 0.1354711,-0.2032065 0.2950327,-0.2492246 0.3957286,-0.2551214 z m -2.8634902,6.0988934 c 0.4403719,0.0076 0.9360866,0.137476 1.369207,0.244664 0.8901421,0.220288 1.9702455,0.871787 1.9193132,1.565933 -0.054358,0.740825 -2.235937,0.739893 -2.235937,0.739893 0,0 -2.3262657,0.270307 -2.2605793,-1.349948 0.038997,-0.96203 0.5643715,-1.211723 1.2079961,-1.200542 z m 17.043025,0 c 0.643626,-0.01112 1.168994,0.238512 1.207996,1.200542 0.06569,1.620255 -2.260579,1.349948 -2.260579,1.349948 0,0 -2.181578,9.31e-4 -2.235937,-0.739893 -0.05093,-0.694146 1.029171,-1.345645 1.919313,-1.565933 0.433121,-0.107189 0.928835,-0.237012 1.369207,-0.244664 z" /></g></svg>
